<svg width="84" height="83" viewBox="0 0 84 83" fill="none" xmlns="http://www.w3.org/2000/svg">
<path d="M27.0272 9.02632C29.7789 8.89659 32.0934 9.93442 34.3307 11.2058C36.388 12.3733 38.2911 13.8263 40.0141 15.4868C40.7856 16.2393 41.2485 16.2652 42.0714 15.4868C44.9773 12.6587 48.2176 10.2717 52.2037 9.36361C57.347 8.222 61.8731 9.85659 65.7305 13.2555C71.3624 18.2371 73.5226 24.6976 72.9569 32.144C72.314 40.4986 68.4565 47.4521 63.4675 53.8607C57.9384 60.9439 51.3036 66.8595 43.9744 71.9709C41.9942 73.346 39.8598 73.346 37.9053 71.9709C28.6217 65.2768 20.2895 57.5969 14.3233 47.6337C11.3659 42.7559 9.41146 37.5408 9.05143 31.8067C8.40852 22.0252 13.8604 12.5549 22.4497 9.80469C23.967 9.31172 25.51 9.00037 27.0272 9.02632Z" fill="url(#paint0_linear_34_652)"/>
<circle cx="62" cy="52" r="5" fill="#FF7CB3"/>
<circle cx="19.5" cy="18.5" r="8.5" fill="#FFD2E5"/>
<circle cx="69" cy="37" r="7" fill="#811B4C"/>
<g filter="url(#filter0_b_34_652)">
<path d="M23.376 0.0334761C26.9441 -0.134744 29.9453 1.21102 32.8465 2.85958C35.5142 4.37357 37.9819 6.25763 40.2161 8.41086C41.2165 9.38654 41.8167 9.42018 42.8838 8.41086C46.652 4.74365 50.8537 1.64839 56.0225 0.470849C62.6918 -1.00949 68.5608 1.11009 73.5628 5.51746C80.8658 11.9771 83.6669 20.3545 82.9333 30.0104C82.0996 40.8438 77.0976 49.8604 70.6283 58.1705C63.4588 67.3553 54.8553 75.0262 45.3515 81.6541C42.7838 83.4372 40.016 83.4372 37.4817 81.6541C25.4435 72.9739 14.6392 63.0152 6.90273 50.0959C3.06786 43.7708 0.533505 37.0083 0.0666506 29.573C-0.767018 16.8892 6.30249 4.60907 17.4403 1.0428C19.4078 0.403561 21.4086 -0.000167998 23.376 0.0334761Z" fill="url(#paint1_linear_34_652)" fill-opacity="0.6"/>
<path d="M23.3675 0.533403L23.3835 0.533678L23.3996 0.532921C26.8215 0.371592 29.7195 1.65776 32.5995 3.2943L32.5997 3.29443C35.2274 4.7857 37.6615 6.64342 39.8681 8.76989C40.3783 9.26723 40.9021 9.64885 41.5198 9.65521C42.1381 9.66157 42.6813 9.29069 43.2274 8.77411L43.2275 8.77414L43.2326 8.76918C46.9729 5.12909 51.0944 2.10676 56.1322 0.95867C62.6134 -0.479466 68.3239 1.56779 73.2321 5.89245C80.4008 12.2337 83.1582 20.4494 82.4347 29.9725C81.6116 40.6665 76.6745 49.5899 70.2342 57.8628C63.1013 67.0007 54.5371 74.6386 45.0655 81.2439C43.8525 82.0861 42.6167 82.4914 41.4041 82.4914C40.1923 82.4914 38.9662 82.0866 37.7715 81.2467C25.7647 72.5887 15.0198 62.6776 7.3317 49.839L7.33028 49.8367C3.52718 43.564 1.02636 36.8789 0.56567 29.5417L0.565574 29.5402C-0.256373 17.0347 6.71857 5.00085 17.5928 1.51899L17.5948 1.51833C19.5289 0.889932 21.4725 0.500998 23.3675 0.533403Z" stroke="url(#paint2_linear_34_652)"/>
</g>
<path d="M37.0762 50.501C39.9108 52.1613 43.5539 51.7533 46.0632 49.5332C46.5 49.1537 46.8439 48.7932 47.1041 48.4991C41.4257 47.0569 38.4424 49.0114 37.0855 50.4915L37.0762 50.501Z" fill="white" stroke="black" stroke-linecap="round" stroke-linejoin="round"/>
<path d="M47.0948 48.5085C47.4201 48.148 47.6059 47.9013 47.6059 47.9013C50.4219 43.7742 45.9145 42.5313 45.9145 42.5313C42.7175 42.0474 41.3699 44.9886 41.3699 44.9886C39.5576 42.3985 36.0818 43.6129 36.0818 43.6129C33.7305 44.5142 34.6413 47.7685 34.6413 47.7685C34.9665 48.7552 35.6729 49.5332 36.5093 50.1214C36.6952 50.2543 36.8903 50.3776 37.0855 50.4915C38.4517 49.0114 41.4349 47.0569 47.1041 48.499L47.0948 48.5085Z" fill="black" stroke="black" stroke-linecap="round" stroke-linejoin="round"/>
<circle cx="33.5" cy="36.5" r="4.5" fill="black"/>
<circle cx="50.5" cy="36.5" r="4.5" fill="black"/>
<circle cx="33" cy="34" r="1" fill="white"/>
<circle cx="34" cy="38" r="2" fill="white"/>
<circle cx="50" cy="34" r="1" fill="white"/>
<circle cx="51" cy="38" r="2" fill="white"/>
<defs>
<filter id="filter0_b_34_652" x="-3.99988" y="-3.9978" width="91.0463" height="90.9892" filterUnits="userSpaceOnUse" color-interpolation-filters="sRGB">
<feFlood flood-opacity="0" result="BackgroundImageFix"/>
<feGaussianBlur in="BackgroundImageFix" stdDeviation="2"/>
<feComposite in2="SourceAlpha" operator="in" result="effect1_backgroundBlur_34_652"/>
<feBlend mode="normal" in="SourceGraphic" in2="effect1_backgroundBlur_34_652" result="shape"/>
</filter>
<linearGradient id="paint0_linear_34_652" x1="41.0221" y1="9.0022" x2="41.0221" y2="73.0022" gradientUnits="userSpaceOnUse">
<stop stop-color="#EE4998"/>
<stop offset="1" stop-color="#F7449A" stop-opacity="0.4"/>
</linearGradient>
<linearGradient id="paint1_linear_34_652" x1="41.5233" y1="0.00219727" x2="41.5233" y2="82.9914" gradientUnits="userSpaceOnUse">
<stop stop-color="#EE4998"/>
<stop offset="1" stop-color="#F7449A" stop-opacity="0.4"/>
</linearGradient>
<linearGradient id="paint2_linear_34_652" x1="41.5233" y1="0.00219724" x2="42" y2="75.5" gradientUnits="userSpaceOnUse">
<stop stop-color="#FFD2ED"/>
<stop offset="1" stop-color="#66224B" stop-opacity="0.4"/>
</linearGradient>
</defs>
</svg>
