<svg width="80" height="80" viewBox="0 0 80 80" fill="none" xmlns="http://www.w3.org/2000/svg">
<rect x="9" y="9" width="62" height="62" rx="4" fill="url(#paint0_linear_34_681)" fill-opacity="0.4"/>
<circle cx="14" cy="13" r="6" fill="white"/>
<circle cx="45" cy="67" r="9" fill="#120A02"/>
<circle cx="62" cy="54" r="12" fill="#77481C"/>
<g filter="url(#filter0_b_34_681)">
<rect width="80" height="80" rx="4" fill="url(#paint1_linear_34_681)" fill-opacity="0.6"/>
<rect x="0.5" y="0.5" width="79" height="79" rx="3.5" stroke="url(#paint2_linear_34_681)"/>
</g>
<path d="M35.0762 50.501C37.9108 52.1613 41.5539 51.7533 44.0632 49.5332C44.5 49.1537 44.8439 48.7932 45.1041 48.4991C39.4257 47.0569 36.4424 49.0114 35.0855 50.4915L35.0762 50.501Z" fill="white" stroke="black" stroke-linecap="round" stroke-linejoin="round"/>
<path d="M45.0948 48.5085C45.4201 48.148 45.6059 47.9013 45.6059 47.9013C48.4219 43.7742 43.9145 42.5313 43.9145 42.5313C40.7175 42.0474 39.3699 44.9886 39.3699 44.9886C37.5576 42.3985 34.0818 43.6129 34.0818 43.6129C31.7305 44.5142 32.6413 47.7685 32.6413 47.7685C32.9665 48.7552 33.6729 49.5332 34.5093 50.1214C34.6952 50.2543 34.8903 50.3776 35.0855 50.4915C36.4517 49.0114 39.4349 47.0569 45.1041 48.499L45.0948 48.5085Z" fill="black" stroke="black" stroke-linecap="round" stroke-linejoin="round"/>
<circle cx="31.5" cy="36.5" r="4.5" fill="black"/>
<circle cx="48.5" cy="36.5" r="4.5" fill="black"/>
<circle cx="31" cy="34" r="1" fill="white"/>
<circle cx="32" cy="38" r="2" fill="white"/>
<circle cx="48" cy="34" r="1" fill="white"/>
<circle cx="49" cy="38" r="2" fill="white"/>
<defs>
<filter id="filter0_b_34_681" x="-4" y="-4" width="88" height="88" filterUnits="userSpaceOnUse" color-interpolation-filters="sRGB">
<feFlood flood-opacity="0" result="BackgroundImageFix"/>
<feGaussianBlur in="BackgroundImageFix" stdDeviation="2"/>
<feComposite in2="SourceAlpha" operator="in" result="effect1_backgroundBlur_34_681"/>
<feBlend mode="normal" in="SourceGraphic" in2="effect1_backgroundBlur_34_681" result="shape"/>
</filter>
<linearGradient id="paint0_linear_34_681" x1="40" y1="9" x2="40" y2="71" gradientUnits="userSpaceOnUse">
<stop stop-color="#FC8846"/>
<stop offset="1" stop-color="#FF7C32" stop-opacity="0.4"/>
</linearGradient>
<linearGradient id="paint1_linear_34_681" x1="40" y1="0" x2="40" y2="80" gradientUnits="userSpaceOnUse">
<stop stop-color="#FF7020"/>
<stop offset="1" stop-color="#D55E1B" stop-opacity="0.4"/>
</linearGradient>
<linearGradient id="paint2_linear_34_681" x1="40" y1="10" x2="40" y2="88" gradientUnits="userSpaceOnUse">
<stop stop-color="#FFC2A0"/>
<stop offset="1" stop-color="#24140B"/>
</linearGradient>
</defs>
</svg>
