<svg width="77" height="77" viewBox="0 0 77 77" fill="none" xmlns="http://www.w3.org/2000/svg">
<path d="M36.7345 20.7694C37.5608 21.0115 38.4392 21.0115 39.2655 20.7694L57.1261 15.5354C59.7804 14.7576 62.2457 17.2209 61.4698 19.8759L56.2502 37.7378C56.0094 38.562 56.0094 39.438 56.2502 40.2622L61.4717 58.1305C62.2472 60.7843 59.7843 63.2472 57.1305 62.4717L39.2622 57.2502C38.438 57.0094 37.562 57.0094 36.7378 57.2502L18.8759 62.4698C16.2209 63.2457 13.7576 60.7804 14.5354 58.1261L19.7694 40.2655C20.0115 39.4392 20.0115 38.5608 19.7694 37.7345L14.5373 19.8803C13.7591 17.2248 16.2248 14.7591 18.8803 15.5373L36.7345 20.7694Z" fill="url(#paint0_linear_34_724)"/>
<path d="M36.7345 20.7694C37.5608 21.0115 38.4392 21.0115 39.2655 20.7694L57.1261 15.5354C59.7804 14.7576 62.2457 17.2209 61.4698 19.8759L56.2502 37.7378C56.0094 38.562 56.0094 39.438 56.2502 40.2622L61.4717 58.1305C62.2472 60.7843 59.7843 63.2472 57.1305 62.4717L39.2622 57.2502C38.438 57.0094 37.562 57.0094 36.7378 57.2502L18.8759 62.4698C16.2209 63.2457 13.7576 60.7804 14.5354 58.1261L19.7694 40.2655C20.0115 39.4392 20.0115 38.5608 19.7694 37.7345L14.5373 19.8803C13.7591 17.2248 16.2248 14.7591 18.8803 15.5373L36.7345 20.7694Z" stroke="url(#paint1_linear_34_724)"/>
<path d="M36.7345 20.7694C37.5608 21.0115 38.4392 21.0115 39.2655 20.7694L57.1261 15.5354C59.7804 14.7576 62.2457 17.2209 61.4698 19.8759L56.2502 37.7378C56.0094 38.562 56.0094 39.438 56.2502 40.2622L61.4717 58.1305C62.2472 60.7843 59.7843 63.2472 57.1305 62.4717L39.2622 57.2502C38.438 57.0094 37.562 57.0094 36.7378 57.2502L18.8759 62.4698C16.2209 63.2457 13.7576 60.7804 14.5354 58.1261L19.7694 40.2655C20.0115 39.4392 20.0115 38.5608 19.7694 37.7345L14.5373 19.8803C13.7591 17.2248 16.2248 14.7591 18.8803 15.5373L36.7345 20.7694Z" stroke="url(#paint2_linear_34_724)"/>
<circle cx="21.5" cy="30.5" r="7.5" fill="#CFC8FF"/>
<circle cx="55" cy="48" r="9" fill="#131259"/>
<circle cx="60" cy="61" r="4" fill="#7665DB" fill-opacity="0.3"/>
<g filter="url(#filter0_b_34_724)">
<path d="M37.3751 10.9526C38.1096 11.1679 38.8904 11.1679 39.6249 10.9526L69.9854 2.05559C73.019 1.16662 75.8364 3.9819 74.9498 7.01611L66.0774 37.378C65.8633 38.1107 65.8633 38.8893 66.0774 39.622L74.9516 69.9902C75.8379 73.0231 73.0231 75.8379 69.9902 74.9516L39.622 66.0774C38.8893 65.8633 38.1107 65.8633 37.378 66.0774L7.01611 74.9498C3.9819 75.8364 1.16662 73.019 2.05559 69.9855L10.9526 39.6249C11.1679 38.8904 11.1679 38.1096 10.9526 37.3751L2.05745 7.02091C1.1681 3.98605 3.98604 1.1681 7.0209 2.05745L37.3751 10.9526Z" fill="url(#paint3_linear_34_724)" fill-opacity="0.6"/>
<path d="M37.2345 11.4325C38.0608 11.6746 38.9392 11.6746 39.7655 11.4325L70.1261 2.53541C72.7804 1.75756 75.2457 4.22093 74.4698 6.87587L65.5975 37.2378C65.3567 38.062 65.3567 38.938 65.5975 39.7622L74.4717 70.1305C75.2472 72.7843 72.7843 75.2472 70.1305 74.4717L39.7622 65.5975C38.938 65.3567 38.062 65.3567 37.2378 65.5975L6.87587 74.4698C4.22093 75.2457 1.75756 72.7804 2.53541 70.1261L11.4325 39.7655C11.6746 38.9392 11.6746 38.0608 11.4325 37.2345L2.53727 6.8803C1.75909 4.2248 4.22479 1.75909 6.88029 2.53727L37.2345 11.4325Z" stroke="url(#paint4_linear_34_724)"/>
</g>
<path d="M33.0762 47.501C35.9108 49.1613 39.5539 48.7533 42.0632 46.5332C42.5 46.1537 42.8439 45.7932 43.1041 45.4991C37.4257 44.0569 34.4424 46.0114 33.0855 47.4915L33.0762 47.501Z" fill="white" stroke="black" stroke-linecap="round" stroke-linejoin="round"/>
<path d="M43.0948 45.5085C43.4201 45.148 43.6059 44.9013 43.6059 44.9013C46.4219 40.7742 41.9145 39.5313 41.9145 39.5313C38.7175 39.0474 37.3699 41.9886 37.3699 41.9886C35.5576 39.3985 32.0818 40.6129 32.0818 40.6129C29.7305 41.5142 30.6413 44.7685 30.6413 44.7685C30.9665 45.7552 31.6729 46.5332 32.5093 47.1214C32.6952 47.2543 32.8903 47.3776 33.0855 47.4915C34.4517 46.0114 37.4349 44.0569 43.1041 45.499L43.0948 45.5085Z" fill="black" stroke="black" stroke-linecap="round" stroke-linejoin="round"/>
<circle cx="29.5" cy="33.5" r="4.5" fill="black"/>
<circle cx="46.5" cy="33.5" r="4.5" fill="black"/>
<circle cx="29" cy="31" r="1" fill="white"/>
<circle cx="30" cy="35" r="2" fill="white"/>
<circle cx="46" cy="31" r="1" fill="white"/>
<circle cx="47" cy="35" r="2" fill="white"/>
<defs>
<filter id="filter0_b_34_724" x="-2.11102" y="-2.11102" width="81.2284" height="81.2284" filterUnits="userSpaceOnUse" color-interpolation-filters="sRGB">
<feFlood flood-opacity="0" result="BackgroundImageFix"/>
<feGaussianBlur in="BackgroundImageFix" stdDeviation="2"/>
<feComposite in2="SourceAlpha" operator="in" result="effect1_backgroundBlur_34_724"/>
<feBlend mode="normal" in="SourceGraphic" in2="effect1_backgroundBlur_34_724" result="shape"/>
</filter>
<linearGradient id="paint0_linear_34_724" x1="38" y1="13" x2="38" y2="65" gradientUnits="userSpaceOnUse">
<stop stop-color="#5A60FE"/>
<stop offset="1" stop-color="#2E34C4" stop-opacity="0.4"/>
</linearGradient>
<linearGradient id="paint1_linear_34_724" x1="38" y1="13" x2="38" y2="65" gradientUnits="userSpaceOnUse">
<stop stop-color="#6349FF"/>
<stop offset="1" stop-color="#120C39"/>
</linearGradient>
<linearGradient id="paint2_linear_34_724" x1="38" y1="13" x2="38" y2="65" gradientUnits="userSpaceOnUse">
<stop stop-color="#6349FF"/>
<stop offset="1" stop-color="#120C39"/>
</linearGradient>
<linearGradient id="paint3_linear_34_724" x1="38.5" y1="0" x2="38.5" y2="77" gradientUnits="userSpaceOnUse">
<stop stop-color="#5A60FE"/>
<stop offset="1" stop-color="#2E34C4" stop-opacity="0.4"/>
</linearGradient>
<linearGradient id="paint4_linear_34_724" x1="38.5" y1="0" x2="38.5" y2="77" gradientUnits="userSpaceOnUse">
<stop stop-color="#6349FF"/>
<stop offset="1" stop-color="#120C39"/>
</linearGradient>
</defs>
</svg>
