<svg width="99" height="86" viewBox="0 0 99 86" fill="none" xmlns="http://www.w3.org/2000/svg">
<path d="M46.5359 24C48.0755 21.3333 51.9245 21.3333 53.4641 24L81.1769 72C82.7165 74.6667 80.792 78 77.7128 78H22.2872C19.208 78 17.2835 74.6667 18.8231 72L46.5359 24Z" fill="#FB4B4B"/>
<circle cx="69" cy="69" r="13" fill="#BC2121"/>
<circle cx="41" cy="73" r="7" fill="#FFA3A3"/>
<g filter="url(#filter0_b_34_632)">
<path d="M45.8993 6C47.4389 3.33334 51.2879 3.33333 52.8275 6L95.2628 79.5C96.8024 82.1667 94.8779 85.5 91.7987 85.5H6.92821C3.849 85.5 1.9245 82.1667 3.4641 79.5L45.8993 6Z" fill="url(#paint0_linear_34_632)" fill-opacity="0.6"/>
<path d="M46.3324 6.25C47.6795 3.91667 51.0474 3.91667 52.3945 6.25L94.8298 79.75C96.1769 82.0833 94.493 85 91.7987 85H6.92821C4.2339 85 2.54996 82.0833 3.89711 79.75L46.3324 6.25Z" stroke="url(#paint1_linear_34_632)"/>
</g>
<path d="M44.0762 52.501C46.9108 54.1613 50.5539 53.7533 53.0632 51.5332C53.5 51.1537 53.8439 50.7932 54.1041 50.4991C48.4257 49.0569 45.4424 51.0114 44.0855 52.4915L44.0762 52.501Z" fill="white" stroke="black" stroke-linecap="round" stroke-linejoin="round"/>
<path d="M54.0948 50.5085C54.4201 50.148 54.6059 49.9013 54.6059 49.9013C57.4219 45.7742 52.9145 44.5313 52.9145 44.5313C49.7175 44.0474 48.3699 46.9886 48.3699 46.9886C46.5576 44.3985 43.0818 45.6129 43.0818 45.6129C40.7305 46.5142 41.6413 49.7685 41.6413 49.7685C41.9665 50.7552 42.6729 51.5332 43.5093 52.1214C43.6952 52.2543 43.8903 52.3776 44.0855 52.4915C45.4517 51.0114 48.4349 49.0569 54.1041 50.499L54.0948 50.5085Z" fill="black" stroke="black" stroke-linecap="round" stroke-linejoin="round"/>
<circle cx="40.5" cy="38.5" r="4.5" fill="black"/>
<circle cx="57.5" cy="38.5" r="4.5" fill="black"/>
<circle cx="40" cy="36" r="1" fill="white"/>
<circle cx="41" cy="40" r="2" fill="white"/>
<circle cx="57" cy="36" r="1" fill="white"/>
<circle cx="58" cy="40" r="2" fill="white"/>
<defs>
<filter id="filter0_b_34_632" x="-1.07776" y="0" width="100.882" height="89.5" filterUnits="userSpaceOnUse" color-interpolation-filters="sRGB">
<feFlood flood-opacity="0" result="BackgroundImageFix"/>
<feGaussianBlur in="BackgroundImageFix" stdDeviation="2"/>
<feComposite in2="SourceAlpha" operator="in" result="effect1_backgroundBlur_34_632"/>
<feBlend mode="normal" in="SourceGraphic" in2="effect1_backgroundBlur_34_632" result="shape"/>
</filter>
<linearGradient id="paint0_linear_34_632" x1="49.3634" y1="0" x2="49" y2="93.5" gradientUnits="userSpaceOnUse">
<stop stop-color="#FF5E5E"/>
<stop offset="1" stop-color="#FF5E5E" stop-opacity="0.4"/>
</linearGradient>
<linearGradient id="paint1_linear_34_632" x1="59" y1="3.5" x2="59" y2="86" gradientUnits="userSpaceOnUse">
<stop stop-color="#FF8C8C"/>
<stop offset="1" stop-color="#542626"/>
</linearGradient>
</defs>
</svg>
