<svg width="91" height="87" viewBox="0 0 91 87" fill="none" xmlns="http://www.w3.org/2000/svg">
<path d="M34.2277 36.2351C35.6954 36.0211 36.9634 35.0977 37.6174 33.7665L42.1523 24.5362C43.4347 21.926 47.1564 21.9277 48.4364 24.539L52.9578 33.7631C53.6113 35.0963 54.8802 36.0213 56.3493 36.2354L66.5177 37.7178C69.3827 38.1355 70.5305 41.6529 68.4634 43.6801L61.0805 50.9204C60.0275 51.9531 59.5473 53.4363 59.7954 54.8902L61.5344 65.0813C62.0227 67.943 59.0155 70.121 56.4488 68.7644L47.3994 63.9817C46.0845 63.2867 44.5111 63.2864 43.1959 63.9807L34.1236 68.77C31.557 70.125 28.5513 67.9471 29.0395 65.0861L30.7793 54.8902C31.0274 53.4363 30.5473 51.9531 29.4942 50.9204L22.1113 43.6801C20.0442 41.6529 21.192 38.1355 24.057 37.7178L34.2277 36.2351Z" fill="url(#paint0_linear_34_782)" stroke="url(#paint1_linear_34_782)"/>
<circle cx="55" cy="34" r="5" fill="#D9D9D9"/>
<circle cx="34" cy="64" r="9" fill="#06332C"/>
<g filter="url(#filter0_b_34_782)">
<path d="M29.3597 28.9462C30.6643 28.756 31.7914 27.9352 32.3728 26.7519L41.9219 7.31569C43.3875 4.33263 47.6409 4.33456 49.1038 7.31896L58.6279 26.749C59.2087 27.934 60.3367 28.7562 61.6426 28.9466L83.0151 32.0624C86.2894 32.5397 87.6012 36.5596 85.2388 38.8764L69.7524 54.0637C68.8164 54.9816 68.3896 56.3 68.6101 57.5923L72.2626 78.9972C72.8207 82.2677 69.3838 84.7568 66.4505 83.2065L47.3842 73.1296C46.2154 72.5119 44.8168 72.5116 43.6477 73.1288L24.547 83.2122C21.6137 84.7607 18.1787 82.2717 18.7366 79.002L22.3899 57.5924C22.6104 56.3 22.1836 54.9816 21.2476 54.0637L5.76122 38.8764C3.39879 36.5596 4.71063 32.5397 7.98489 32.0624L29.3597 28.9462Z" fill="url(#paint2_linear_34_782)" fill-opacity="0.6"/>
<path d="M29.4319 29.441C30.8996 29.227 32.1675 28.3036 32.8216 26.9724L42.3707 7.53617C43.6531 4.926 47.3748 4.92769 48.6548 7.53903L58.1789 26.9691C58.8324 28.3022 60.1013 29.2272 61.5704 29.4413L82.943 32.5571C85.808 32.9748 86.9558 36.4922 84.8887 38.5194L69.4024 53.7067C68.3493 54.7394 67.8692 56.2226 68.1173 57.6764L71.7697 79.0813C72.258 81.943 69.2508 84.121 66.6841 82.7645L47.6178 72.6876C46.3029 71.9926 44.7295 71.9923 43.4143 72.6866L24.3136 82.77C21.747 84.1249 18.7413 81.9471 19.2295 79.0861L22.8827 57.6765C23.1308 56.2226 22.6507 54.7394 21.5977 53.7067L6.11131 38.5194C4.04418 36.4922 5.19204 32.9748 8.05702 32.5571L29.4319 29.441Z" stroke="url(#paint3_linear_34_782)"/>
</g>
<path d="M40.0762 53.501C42.9108 55.1613 46.5539 54.7533 49.0632 52.5332C49.5 52.1537 49.8439 51.7932 50.1041 51.4991C44.4257 50.0569 41.4424 52.0114 40.0855 53.4915L40.0762 53.501Z" fill="white" stroke="black" stroke-linecap="round" stroke-linejoin="round"/>
<path d="M50.0948 51.5085C50.4201 51.148 50.6059 50.9013 50.6059 50.9013C53.4219 46.7742 48.9145 45.5313 48.9145 45.5313C45.7175 45.0474 44.3699 47.9886 44.3699 47.9886C42.5576 45.3985 39.0818 46.6129 39.0818 46.6129C36.7305 47.5142 37.6413 50.7685 37.6413 50.7685C37.9665 51.7552 38.6729 52.5332 39.5093 53.1214C39.6952 53.2543 39.8903 53.3776 40.0855 53.4915C41.4517 52.0114 44.4349 50.0569 50.1041 51.499L50.0948 51.5085Z" fill="black" stroke="black" stroke-linecap="round" stroke-linejoin="round"/>
<circle cx="36.5" cy="39.5" r="4.5" fill="black"/>
<circle cx="53.5" cy="39.5" r="4.5" fill="black"/>
<circle cx="36" cy="37" r="1" fill="white"/>
<circle cx="37" cy="41" r="2" fill="white"/>
<circle cx="53" cy="37" r="1" fill="white"/>
<circle cx="54" cy="41" r="2" fill="white"/>
<defs>
<filter id="filter0_b_34_782" x="0.557568" y="1.07953" width="89.8849" height="86.6042" filterUnits="userSpaceOnUse" color-interpolation-filters="sRGB">
<feFlood flood-opacity="0" result="BackgroundImageFix"/>
<feGaussianBlur in="BackgroundImageFix" stdDeviation="2"/>
<feComposite in2="SourceAlpha" operator="in" result="effect1_backgroundBlur_34_782"/>
<feBlend mode="normal" in="SourceGraphic" in2="effect1_backgroundBlur_34_782" result="shape"/>
</filter>
<linearGradient id="paint0_linear_34_782" x1="45.2874" y1="17" x2="45.2874" y2="73" gradientUnits="userSpaceOnUse">
<stop stop-color="#46FFDE"/>
<stop offset="1" stop-color="#248674" stop-opacity="0.4"/>
</linearGradient>
<linearGradient id="paint1_linear_34_782" x1="45.2874" y1="17" x2="45.2874" y2="73" gradientUnits="userSpaceOnUse">
<stop stop-color="#97FFF3"/>
<stop offset="1" stop-color="#112B2D"/>
</linearGradient>
<linearGradient id="paint2_linear_34_782" x1="45.5" y1="0" x2="45.5" y2="87" gradientUnits="userSpaceOnUse">
<stop stop-color="#46FFDE"/>
<stop offset="1" stop-color="#248674" stop-opacity="0.4"/>
</linearGradient>
<linearGradient id="paint3_linear_34_782" x1="45.5" y1="0" x2="45.5" y2="87" gradientUnits="userSpaceOnUse">
<stop stop-color="#97FFF3"/>
<stop offset="1" stop-color="#112B2D"/>
</linearGradient>
</defs>
</svg>
